<svg preserveAspectRatio="none" width="100%" height="100%" overflow="visible" style="display: block;" viewBox="0 0 61.1225 61.1225" fill="none" xmlns="http://www.w3.org/2000/svg">
<g id="sparkle-fill-24">
<path id="icon" d="M28.7676 4.89924C29.3794 3.22803 31.743 3.22803 32.3549 4.89924L34.1809 9.88688C37.0795 17.8042 43.3183 24.043 51.2356 26.9416L56.2233 28.7676C57.8945 29.3794 57.8945 31.743 56.2233 32.3549L51.2356 34.1809C43.3182 37.0795 37.0795 43.3183 34.1809 51.2356L32.3549 56.2233C31.743 57.8945 29.3794 57.8945 28.7676 56.2233L26.9416 51.2356C24.043 43.3182 17.8042 37.0795 9.88687 34.1809L4.89924 32.3549C3.22803 31.743 3.22803 29.3794 4.89924 28.7676L9.88688 26.9416C17.8042 24.043 24.043 17.8042 26.9416 9.88687L28.7676 4.89924Z" fill="var(--fill-0, #3FB950)"/>
</g>
</svg>
